<svg xmlns="http://www.w3.org/2000/svg" width="50" height="50" fill="none" viewBox="0 0 202 38">
  <path fill="#4A49BB" d="M55.81 28.35h4.47a.36.36 0 0 0 .356-.356V6.428a.36.36 0 0 0-.356-.356h-4.47a.36.36 0 0 0-.356.356v8.403H46.61V6.428a.36.36 0 0 0-.356-.356h-4.47a.36.36 0 0 0-.357.356V28.01a.36.36 0 0 0 .357.356h4.47a.36.36 0 0 0 .356-.356v-8.435h8.843v8.435c.016.195.178.34.356.34Zm18.77 0h4.212a.36.36 0 0 0 .356-.356V13.519a.36.36 0 0 0-.356-.356H74.58a.36.36 0 0 0-.356.356v1.053l-.502-.421a5.1 5.1 0 0 0-1.28-.778c-.777-.34-1.652-.502-2.591-.502-1.393 0-2.656.34-3.741 1.004a6.95 6.95 0 0 0-2.576 2.801c-.615 1.198-.939 2.59-.939 4.129 0 1.522.308 2.882.94 4.08a7.17 7.17 0 0 0 2.575 2.801c1.085.68 2.348 1.02 3.74 1.02.94 0 1.815-.178 2.592-.518a5.3 5.3 0 0 0 1.28-.793l.502-.421v1.068a.353.353 0 0 0 .356.308m-1.408-5.068c-.632.664-1.458 1.004-2.462 1.004a3.35 3.35 0 0 1-1.733-.47 3.25 3.25 0 0 1-1.214-1.262 3.9 3.9 0 0 1-.422-1.814c0-.647.146-1.246.438-1.78a3.25 3.25 0 0 1 1.215-1.264 3.3 3.3 0 0 1 1.749-.47c.647 0 1.247.163 1.749.47.502.308.907.729 1.198 1.247.276.518.421 1.117.421 1.797 0 1.036-.324 1.878-.94 2.542ZM92.04 28.35h4.308a.36.36 0 0 0 .356-.356v-9.553c0-1.052-.243-2.023-.729-2.85a5.7 5.7 0 0 0-2.008-2.007c-.842-.502-1.814-.745-2.9-.745q-1.796 0-3.206.729a5.4 5.4 0 0 0-.907.583l-.486.388v-1.02a.36.36 0 0 0-.356-.356h-4.308a.36.36 0 0 0-.356.356V28.01a.36.36 0 0 0 .356.356h4.308a.36.36 0 0 0 .356-.356v-8.257c0-.55.114-1.02.324-1.409.227-.388.535-.712.94-.923a2.9 2.9 0 0 1 1.36-.323c.745 0 1.377.242 1.863.712.485.47.745 1.133.745 1.943v8.257c-.017.194.145.34.34.34m6.898 4.388c.697.89 1.523 1.409 2.689 1.927 1.296.566 2.818.858 4.518.858 1.669 0 3.175-.324 4.487-.988a7.76 7.76 0 0 0 3.093-2.768c.745-1.182 1.134-2.607 1.134-4.21V13.519a.36.36 0 0 0-.357-.356h-4.21a.36.36 0 0 0-.357.356v.697l-.486-.34a5 5 0 0 0-.955-.535c-.794-.34-1.668-.502-2.608-.502-1.393 0-2.656.34-3.741.988a7.1 7.1 0 0 0-2.559 2.671q-.923 1.676-.923 3.79c0 1.408.308 2.687.94 3.82a6.9 6.9 0 0 0 2.558 2.672c1.069.647 2.333.971 3.742.971a6.7 6.7 0 0 0 2.591-.502 4.8 4.8 0 0 0 .891-.485l.469-.324v1.295c0 1.117-.372 2.008-1.101 2.607-.713.599-1.668.89-2.867.89-.971 0-1.814-.178-2.494-.534-.567-.291-.939-.615-1.441-1.02-.049-.033-.292-.114-.437.032l-2.543 2.51-.033.032c-.145.162-.08.405 0 .486m10.123-9.86c-.632.663-1.458 1.003-2.462 1.003a3.35 3.35 0 0 1-1.733-.469 3.26 3.26 0 0 1-1.215-1.263 3.9 3.9 0 0 1-.421-1.813c0-.648.146-1.247.438-1.781a3.33 3.33 0 0 1 2.963-1.732 3.3 3.3 0 0 1 1.749.469c.503.307.907.728 1.199 1.246.275.519.421 1.118.421 1.798 0 1.036-.308 1.894-.939 2.542m10.56-16.758c-.761 0-1.377.259-1.879.777a2.68 2.68 0 0 0-.761 1.927c0 .793.243 1.425.745 1.927.502.518 1.117.76 1.879.76.809 0 1.441-.242 1.927-.76.502-.519.745-1.15.745-1.943 0-.761-.243-1.393-.745-1.927-.47-.502-1.101-.761-1.911-.761m2.186 7.06h-4.341a.36.36 0 0 0-.356.356V28.01a.36.36 0 0 0 .356.356h4.341a.36.36 0 0 0 .356-.356V13.52c0-.179-.162-.34-.356-.34"/>
  <path fill="#F26722" d="M149.388 13.18h-4.308a.36.36 0 0 0-.356.356V28.01a.36.36 0 0 0 .356.357h4.308a.36.36 0 0 0 .356-.357v-7.933c0-.94.227-1.668.697-2.154.469-.501 1.117-.76 1.943-.76.421 0 .81.064 1.15.194.178.065.858.324 1.004.405.065.032.13.032.162-.017l2.251-3.886c.033-.048.033-.113-.016-.145a3.4 3.4 0 0 0-1.02-.583c-.518-.178-1.134-.275-1.847-.275-1.554 0-2.834.42-3.805 1.263l-.503.437v-1.02a.385.385 0 0 0-.372-.356m23.08 8.759c.048-.21.065-.405.081-.583.032-.324.048-.648.048-.956 0-1.473-.34-2.784-1.004-3.934-.664-1.133-1.603-2.04-2.785-2.704-1.183-.647-2.559-.971-4.098-.971-1.571 0-3.012.356-4.259 1.036-1.247.696-2.251 1.652-2.964 2.833s-1.085 2.559-1.085 4.08c0 1.555.372 2.947 1.117 4.13.745 1.197 1.782 2.136 3.078 2.816 1.311.68 2.834 1.02 4.55 1.02 1.361 0 2.576-.226 3.644-.647.891-.373 1.636-.842 2.3-1.49a.3.3 0 0 0 0-.42l-2.138-2.138c-.064-.065-.113-.065-.178-.065-.081 0-.145.065-.178.081-.421.421-.793.632-1.296.842-.631.275-1.36.405-2.17.405-.874 0-1.619-.178-2.219-.518-.615-.356-1.085-.875-1.409-1.57-.081-.163-.145-.34-.21-.519l-.13-.405 10.965-.048c.162.016.307-.113.34-.275m-11.321-2.672.13-.405c.048-.178.113-.34.178-.502a3.74 3.74 0 0 1 1.312-1.586c.567-.373 1.247-.567 2.008-.567.745 0 1.377.162 1.879.502s.89.826 1.15 1.441c.081.194.145.42.21.664l.097.372zm24.925 9.083h4.211a.36.36 0 0 0 .356-.356V6.46a.36.36 0 0 0-.356-.356h-4.308a.36.36 0 0 0-.357.356v7.707l-.469-.308a6 6 0 0 0-.956-.502 6.9 6.9 0 0 0-2.656-.501c-1.49 0-2.802.34-3.903 1.003-1.101.664-1.976 1.603-2.608 2.801-.631 1.199-.955 2.591-.955 4.113s.324 2.882.955 4.064c.632 1.182 1.507 2.12 2.624 2.8 1.101.68 2.413 1.02 3.871 1.02.939 0 1.83-.193 2.656-.566a6.2 6.2 0 0 0 1.053-.615l.485-.356v.858c0 .227.162.372.357.372m-.907-5.764a3.2 3.2 0 0 1-1.199 1.247 3.5 3.5 0 0 1-1.765.453 3.35 3.35 0 0 1-1.733-.47 3.26 3.26 0 0 1-1.215-1.262 3.9 3.9 0 0 1-.421-1.813c0-.648.146-1.247.438-1.781a3.33 3.33 0 0 1 2.963-1.732 3.3 3.3 0 0 1 1.749.469c.503.307.907.728 1.199 1.246.275.518.421 1.117.421 1.798q0 1.068-.437 1.845m12.437-9.406h-4.34a.36.36 0 0 0-.356.356V28.01a.36.36 0 0 0 .356.357h4.34a.36.36 0 0 0 .357-.357V13.52c0-.178-.162-.34-.357-.34m-.258-6.283c-.486-.518-1.118-.777-1.928-.777-.761 0-1.376.26-1.878.777a2.67 2.67 0 0 0-.762 1.927c0 .793.243 1.425.745 1.927.502.518 1.118.76 1.879.76.81 0 1.441-.242 1.927-.76.502-.518.745-1.15.745-1.943.017-.761-.226-1.376-.728-1.91Zm-54.628-.809c.049.016.227.08.065.324l-5.28 6.638-.259.324c-.453.566-1.441 1.797-2.607 3.27l-.049.033 8.47 11.204.162.21c.049.049.033.146-.016.194-.081.081-.324.065-.372.065h-5.523a.32.32 0 0 1-.275-.145l-5.523-7.626-.065.097c-.648.826-1.263 1.603-1.797 2.283l-.017.016v5.02a.36.36 0 0 1-.356.355h-4.47a.36.36 0 0 1-.356-.356V6.428a.36.36 0 0 1 .356-.356h4.47a.36.36 0 0 1 .356.356v9.1l7.062-9.31a.36.36 0 0 1 .275-.146h5.587c.033 0 .098 0 .162.016M27.923 12.322a3.26 3.26 0 0 0-1.976 1.667c-.874 1.652-.275 3.578 1.377 4.501h.016a3.47 3.47 0 0 0 2.56.243c.809-.243 1.505-.81 1.943-1.635.437-.81.534-1.716.275-2.558a3.17 3.17 0 0 0-1.62-1.943 3.34 3.34 0 0 0-2.575-.275M13.135 9.343a3.36 3.36 0 0 0-1.976 1.667c-.874 1.652-.275 3.578 1.377 4.501h.016a3.47 3.47 0 0 0 2.559.243c.81-.243 1.506-.81 1.944-1.635.437-.81.534-1.716.275-2.558a3.17 3.17 0 0 0-1.62-1.943 3.32 3.32 0 0 0-2.575-.275"/>
  <path fill="#4A49BB" d="M21.797 31.669c-1.473 0-2.915-.178-4.356-.518-7.92-1.91-12.536-8.517-13.653-10.297a.486.486 0 0 1 .178-.68l3.385-1.911a.476.476 0 0 1 .648.162c.955 1.457 4.664 6.606 10.624 8.014 4.227 1.004 8.827-.064 13.685-3.157a.476.476 0 0 1 .664.146l2.138 3.238a.494.494 0 0 1-.146.68c-4.486 2.866-8.907 4.323-13.167 4.323"/>
  <path fill="#F26722" d="m21.686 23.671-3.805-.745a.49.49 0 0 1-.39-.566l3.79-19.284a.49.49 0 0 1 .568-.388l3.805.744c.26.049.438.308.39.567l-3.79 19.283a.49.49 0 0 1-.568.39Z"/>
</svg>
