<svg width="800" height="800" viewBox="0 0 48 48" xmlns="http://www.w3.org/2000/svg">
  <g data-name="Layer 2">
    <path fill="none" data-name="invisible box" d="M0 0h48v48H0z"/>
    <path d="M42 4H6a2 2 0 0 0-2 2v16.7l12.5-12.5 4.5 4.5 4.6-4.6a2.1 2.1 0 0 1 2.4 0 2 2 0 0 1 .4 2.8L21 20.3l-4.5-4.5L4 28.3v4.4l13.5-13.5 4.5 4.5 11.6-11.6a2.1 2.1 0 0 1 2.4 0 2 2 0 0 1 .4 2.8L22 29.3l-4.5-4.5L4 38.3s0 4.1.1 4.3l14.4-14.4 4.5 4.5 10.6-10.6a2.1 2.1 0 0 1 2.4 0 2 2 0 0 1 .4 2.8L23 38.3l-4.5-4.5L8.3 44H42a2 2 0 0 0 2-2V6a2 2 0 0 0-2-2" data-name="Q3 icons"/>
  </g>
</svg>
