<svg xmlns="http://www.w3.org/2000/svg" width="200" height="200" style="shape-rendering:geometricPrecision;text-rendering:geometricPrecision;image-rendering:optimizeQuality;fill-rule:evenodd;clip-rule:evenodd">
  <path style="opacity:1" fill="#fefefe" d="M-.5-.5h200v200H-.5z"/>
  <path style="opacity:1" fill="#7dc7c5" d="M55.5 42.5h8q3.672 1.46 8 1-.165.925-1 1.5 1.686.375 3 1.5a1612 1612 0 0 0-2 113h-8v-112q-2.55.24-5-.5 1.255-1.517 1-3.5-2.398.401-4-1"/>
  <path style="opacity:1" fill="#7fc6be" d="M71.5 43.5q5.025-.247 10 .5 2.012 4.893-1 1.5-1.195.686-1 2-2.99 55.477-2 112h-6q-.978-56.729 2-113a6.8 6.8 0 0 0-3-1.5q.835-.575 1-1.5"/>
  <path style="opacity:1" fill="#8cc595" d="M111.5 44.5a68 68 0 0 0 9 2.5q-2.639 7.814-2.5 16.5-4.144 4.985-1.5 11-3.714-4.585-10-4-5.961-2.945 0-6.5a71 71 0 0 1-1-16.5 4.93 4.93 0 0 1-3-.5q4.286-3.207 9-2.5"/>
  <path style="opacity:1" fill="#72c7eb" d="M43.5 67.5q3.072-.51 3 1a62.8 62.8 0 0 1-15.5-1q-.75-9.987-.5-20h7v16q2.55-.24 5 .5-21.56 2.453 1 3.5"/>
  <path style="opacity:1" fill="#77c6e3" d="m43.5 42.5 4 2q-3.974 2.415-9 2.5 2.45.74 5 .5v16a8.4 8.4 0 0 1 4 .5 55 55 0 0 1-7 2q1.856.348 3 1.5-22.56-1.047-1-3.5-2.45-.74-5-.5v-16h-7q-.25 10.013.5 20a62.8 62.8 0 0 0 15.5 1v1h-17v-27z"/>
  <path style="opacity:1" fill="#78c7d9" d="M47.5 44.5a13.1 13.1 0 0 1 7 1 3279 3279 0 0 0-1 114h-10v-16q-3.375.478-6-1.5a63 63 0 0 1 10-2.5 445 445 0 0 0-11-2.5q6.059-1.028 11-3.5.495-32.26-1-64v-1q.072-1.51-3-1-1.144-1.152-3-1.5a55 55 0 0 0 7-2 8.4 8.4 0 0 0-4-.5v-16q-2.55.24-5-.5 5.026-.085 9-2.5"/>
  <path style="opacity:1" fill="#7ac6d0" d="M43.5 42.5h12q1.602 1.401 4 1 .255 1.983-1 3.5 2.45.74 5 .5v112h-10q-.49-57.065 1-114a13.1 13.1 0 0 0-7-1z"/>
  <path style="opacity:1" fill="#80c5b8" d="M79.5 47.5q-.625 3.87 2 6.5l-2 1q1.685 1.258 2 3.5-.044 3.215-2 4 1.956.785 2 4a55 55 0 0 0-2 7q.146 3.18 2.5 5 1 25.5 0 51-2.81 4.002-2.5 9a81.8 81.8 0 0 1 2 21h-4q-.99-56.523 2-112"/>
  <path style="opacity:1" fill="#8dc6a4" d="M129.5 42.5h-2q-8.656-.92-16 2-4.714-.707-9 2.5 1.422.725 3 .5a71 71 0 0 0 1 16.5q-5.961 3.555 0 6.5-5.409-.434-10.5 1-.75-11.99-.5-24 .116-1.875 2-2.5 14.456-6.09 30-4 1.373.417 2 1.5"/>
  <path style="opacity:1" fill="#8ec58c" d="M127.5 42.5q-15.82 2.215 1 4.5a71 71 0 0 0-1 16.5 4.93 4.93 0 0 0-3 .5q2.844 4.266 3 9.5a2000 2000 0 0 0-1 86h-1v-80q-1.762.329-3-1 1.56-3.034 3-6-1.794-7.6-5-.5a84 84 0 0 1-.5 23.5 2047 2047 0 0 0-.5 64 1594 1594 0 0 1-3-80v-5q-2.644-6.015 1.5-11-.139-8.686 2.5-16.5a68 68 0 0 1-9-2.5q7.344-2.92 16-2"/>
  <path style="opacity:1" fill="#92c480" d="M127.5 42.5h2a62.8 62.8 0 0 1 14 5q1.146 4.93 5.5 8a8.4 8.4 0 0 1 .5 4q-1.334-4.094-5.5-6-.598.342-.5 1a44 44 0 0 1-2-1q-1.163 2.703-3 2-2.022-1.54-1.5-4 6.67 1.564 0-2-4.85 6.264.5 12.5a1209 1209 0 0 0-2 97.5h-9q-.425-43.017 1-86-.156-5.234-3-9.5a4.93 4.93 0 0 1 3-.5 71 71 0 0 1 1-16.5q-16.82-2.285-1-4.5"/>
  <path style="opacity:1" fill="#87c5b4" d="M63.5 42.5h21a25.9 25.9 0 0 0 1 10 556 556 0 0 1 8-5q-.5 5.5-6 6-.456 5.573 2 10.5-2.825 8.623 6 9.5a38.2 38.2 0 0 0-10 6 730 730 0 0 0-1 54q3.55 2.587 5 7a112 112 0 0 0-1 19h-7a81.8 81.8 0 0 0-2-21q-.31-4.998 2.5-9 1-25.5 0-51-2.354-1.82-2.5-5a55 55 0 0 1 2-7q-.044-3.215-2-4 1.956-.785 2-4-.315-2.242-2-3.5l2-1q-2.625-2.63-2-6.5-.195-1.314 1-2 3.012 3.393 1-1.5a50.4 50.4 0 0 0-10-.5q-4.328.46-8-1"/>
  <path style="opacity:1" fill="#95c379" d="M138.5 55.5q.26 4.02 3 7a3608 3608 0 0 0-1 97h-5a1209 1209 0 0 1 2-97.5q-5.35-6.236-.5-12.5 6.67 3.564 0 2-.522 2.46 1.5 4"/>
  <path style="opacity:1" fill="#89c6ab" d="M93.5 47.5h2q-.25 12.01.5 24 5.091-1.434 10.5-1 6.286-.585 10 4v5q-1.559-3.83-5-6.5a47.7 47.7 0 0 0-16 .5q-8.824-.877-6-9.5-2.456-4.927-2-10.5 5.5-.5 6-6"/>
  <path style="opacity:1" fill="#97c374" d="M143.5 54.5a78 78 0 0 1 4 11 49 49 0 0 0-1 8 680 680 0 0 0 3 55 9.86 9.86 0 0 1-6 1v4q4.635-2.93 7 2a53.4 53.4 0 0 1-7 4 32.4 32.4 0 0 0 4.5 3q.749 8.486.5 17h-8q-.151-48.61 1-97-2.74-2.98-3-7 1.837.703 3-2 1.025.544 2 1"/>
  <path style="opacity:1" fill="#9ac36a" d="M149.5 59.5q.274 5.85 4 10v2a896 896 0 0 1-1 58.5q.276 2.064 2 2.5 8.715 1.485 18 1v26h-1v-22a61 61 0 0 0-11 .5 13.3 13.3 0 0 1-3 4.5q1.676 2.174 2 5a73 73 0 0 0-1 12h-10a145 145 0 0 0-.5-17 32.4 32.4 0 0 1-4.5-3 53.4 53.4 0 0 0 7-4q-2.365-4.93-7-2v-4a9.86 9.86 0 0 0 6-1 680 680 0 0 1-3-55 49 49 0 0 1 1-8 78 78 0 0 0-4-11q-.098-.658.5-1 4.166 1.906 5.5 6"/>
  <path style="opacity:1" fill="#aac788" d="M149.5 59.5q3.595 4.213 4 10-3.726-4.15-4-10"/>
  <path style="opacity:1" fill="#d1e3ec" d="M29.5 69.5h17a1025 1025 0 0 1 1 64h-18q8.213-1.483 17-1v-62q-8.787.483-17-1"/>
  <path style="opacity:1" fill="#90c38b" d="M125.5 159.5h-6q-.25-32.004.5-64a84 84 0 0 0 .5-23.5q3.206-7.1 5 .5-1.44 2.966-3 6 1.238 1.329 3 1z"/>
  <path style="opacity:1" fill="#d5ebbe" d="M154.5 79.5a703 703 0 0 1 1 53q8.787-.483 17 1-9.285.485-18-1z"/>
  <path style="opacity:1" fill="#a1c077" d="M153.5 71.5q1.46 3.672 1 8v53q-1.724-.436-2-2.5a896 896 0 0 0 1-58.5"/>
  <path style="opacity:1" fill="#9dc35b" d="M171.5 159.5h-13a73 73 0 0 1 1-12q-.324-2.826-2-5a13.3 13.3 0 0 0 3-4.5 61 61 0 0 1 11-.5z"/>
  <path style="opacity:1" fill="#c5d8be" d="M116.5 79.5a1594 1594 0 0 0 3 80h53a757 757 0 0 1-55 1 1641 1641 0 0 1-1-81"/>
  <path style="opacity:1" fill="#e3f4f1" d="M85.5 79.5a738 738 0 0 0 1 52q6.525.405 12.5-2 5.167 1.436 6.5 6.5a313 313 0 0 0-1.5 24.5q-.907 2.972-3 1l-5 2a1211 1211 0 0 0-48.5-2q-9.701.447-19 1.5a3.94 3.94 0 0 1-1-2q.944-13.962 2-27.5v26h73v-26h-18a730 730 0 0 1 1-54"/>
  <path style="opacity:1" fill="#88c5a7" d="M84.5 133.5h18v26h-14a112 112 0 0 1 1-19q-1.45-4.413-5-7"/>
  <path style="opacity:1" fill="#74c6e7" d="M29.5 133.5h18q-4.941 2.472-11 3.5a445 445 0 0 1 11 2.5 63 63 0 0 0-10 2.5q2.625 1.978 6 1.5v16h-14z"/>
  <path style="opacity:1" fill="#f8fdef" d="M172.5 133.5a337 337 0 0 1 3 27 4.46 4.46 0 0 1-1.5 2q-26.067.17-52.5-.5-2.337-.315-4-1.5 27.762.495 55-1z"/>
</svg>
