<svg version="1.0" xmlns="http://www.w3.org/2000/svg" width="145.333" height="29.333" viewBox="0 0 109 22"><path d="M41 1.9c0 1-.7 2.1-1.5 2.5-.8.3-1.5 1-1.5 1.6 0 .5.7 1 1.5 1 1.2 0 1.5 1.3 1.5 5.9 0 7.7 2.4 10.4 7.4 8.5 2.5-.9 1.9-2.2-1.1-2.6-2.7-.3-2.8-.6-3.1-6.1S44 7 46.5 7c1.6 0 2.5-.6 2.5-1.5S48.1 4 46.5 4C44.7 4 44 3.5 44 2c0-1.1-.7-2-1.5-2S41 .9 41 1.9M.4 5.3c-1 2.6.1 16 1.3 16.4.8.3 1.3-1.6 1.5-6.3l.3-6.6 3.2 4.3c4 5.6 7.1 8.9 8.3 8.9.6 0 1-3.9 1-9 0-7.2-.3-9-1.5-9-1 0-1.5 1.6-1.7 6.1l-.3 6.1-4.7-6.1C3 3.9 1.4 2.9.4 5.3M21.8 7c-2.6 2.7-3 3.6-2.5 6.7.9 5.3 3.8 7.8 9.1 7.8 4.5 0 8.4-2.1 6.7-3.8-.5-.5-1.7-.4-3 .3-3.1 1.6-7.1.9-8.9-1.8L21.8 14h7.6c7 0 7.6-.2 7.6-2.1 0-1.1-1.3-3.4-2.9-5-4-4-8.2-3.9-12.3.1m10.4 1.7c2.9 2.6 2.2 3.3-3.5 3.3-6.3 0-7.3-.7-5-3.2 2-2.2 6.1-2.3 8.5-.1M52 10.5c0 5.7.3 6.9 2.5 9 2.5 2.6 5.9 3.2 8.5 1.5.9-.5 1.9-.5 2.7.2 1.9 1.5 2.4-.8 2.1-9.2-.4-9.9-2.6-10.8-3-1.3-.3 6.4-.4 6.8-3.1 7.7-4.7 1.7-6.2-.1-6.5-7.8-.2-5-.6-6.6-1.7-6.6-1.2 0-1.5 1.5-1.5 6.5m21.9-3.6c-5.7 5.8-2.1 14.6 6 14.6 4.3 0 7.9-2.4 6.7-4.4-.5-.8-1.4-.7-2.9.4-4.5 3.1-9.7.6-9.7-4.7 0-4.8 5.6-7.3 10-4.6 2.9 1.8 3.9-.1 1.1-2.3-3.5-2.8-7.7-2.4-11.2 1M92.7 6c-7.5 5.9-1.6 17.3 7.9 15.5 3.7-.7 6.1-2.9 4.4-4-.7-.4-1.7-.2-2.3.4-2.4 2.4-9.7.5-9.7-2.4 0-1.2 1.5-1.5 7-1.5 7.5 0 8.1-.5 5.9-5.3C103.8 4 97 2.6 92.7 6m9.7 2.6c2.7 2.6 1.8 3.4-3.9 3.4-3.8 0-5.5-.4-5.5-1.3 0-3.6 6.5-5.1 9.4-2.1"/></svg>