<svg xmlns="http://www.w3.org/2000/svg" viewBox="0 0 357.848 357.848" xml:space="preserve">
  <path d="M313.654 200.57c-2.616-42.207-24.93-80.778-60.107-104.145.246-2.468.377-4.97.377-7.502 0-41.356-33.646-75-75-75s-75 33.645-75 75c0 2.532.129 5.034.375 7.502-35.169 23.361-57.48 61.92-60.104 104.115C17.702 212.501 0 239.189 0 268.924c0 41.355 33.645 75 75 75 15.924 0 31.123-4.956 43.809-14.118a134.9 134.9 0 0 0 60.115 14.118c20.97 0 41.559-4.875 60.168-14.144 12.325 8.887 27.434 14.144 43.756 14.144 41.354 0 75-33.645 75-75 0-30.378-18.165-56.576-44.194-68.354M178.924 43.924c24.813 0 45 20.187 45 45s-20.188 45-45 45c-24.814 0-45-20.187-45-45s20.186-45 45-45M30 268.924c0-20.162 13.549-37.998 32.948-43.373h.001A45.2 45.2 0 0 1 75 223.924c24.813 0 45 20.186 45 45 0 12.179-4.787 23.584-13.482 32.118-8.464 8.307-19.658 12.882-31.518 12.882-24.813 0-45-20.187-45-45m109.96 37.516c6.539-11.274 10.04-24.109 10.04-37.517 0-41.352-33.639-74.994-74.988-75 3.852-26.662 17.846-50.861 38.989-67.521 12.985 22.406 37.214 37.521 64.923 37.521 27.707 0 51.936-15.115 64.922-37.521 21.145 16.66 35.138 40.859 38.99 67.521-41.35.007-74.988 33.648-74.988 75a74.5 74.5 0 0 0 10.088 37.497 105.1 105.1 0 0 1-39.012 7.503 105.1 105.1 0 0 1-38.964-7.483m142.888 7.484c-24.813 0-45-20.186-45-45s20.187-45 45-45 45 20.186 45 45-20.188 45-45 45"/>
</svg>
