<svg version="1.0" xmlns="http://www.w3.org/2000/svg" viewBox="0 0 470 354" xml:space="preserve">
  <path d="M180.9 63c-6.9 0-13.7 3.9-17.2 9.9l-54.1 94c-3.4 6-3.4 13.8 0 19.9l54.1 94c3.5 6 10.2 9.9 17.2 9.9h108.3c6.9 0 13.7-3.9 17.2-9.9l54.1-94c3.4-6 3.4-13.8 0-19.9l-54.1-94c-3.5-6-10.2-9.9-17.2-9.9zm.9 55H201c.8 0 1.6.5 2 1.2l31.7 56.5q.3.45.3.9 0-.45.3-.9l31.6-56.5c.4-.7 1.3-1.2 2.1-1.2h18.7c1.7 0 2.9 2.1 2.1 3.6l-30.9 55.3 30.9 55.2c.8 1.5-.4 3.7-2.1 3.6H269c-.9 0-1.7-.5-2.1-1.3L235.3 178q-.3-.45-.3-.9 0 .45-.3.9L203 234.5c-.4.7-1.2 1.3-2 1.3h-18.7c-1.7 0-3-2.2-2.1-3.6l30.9-55.2-30.9-55.3c-.8-1.5.1-3.4 1.6-3.7" style="fill:#3498db"/>
</svg>
