<svg version="1.0" xmlns="http://www.w3.org/2000/svg" width="746.667" height="120" viewBox="0 0 560 90"><path d="M0 45v45h560V0H0zm27-21.4v10.6l3-2.6c7.4-6.1 18.2-5.9 25.7.7 4.7 4.2 7.3 9.9 7.3 16.6 0 7.7-1.9 12.9-6.5 17.7-7.1 7.4-18.9 8.2-26.5 1.8l-3-2.6v3.1c0 3-.1 3.1-4.5 3.1H18V13h9zm475.2 6 .3 16.6 7.4-9.1 7.5-9.1h12.8l-8.1 8.9c-4.4 4.8-8.8 9.4-9.6 10.1-2.2 1.8-1.8 4.3 1.1 7.1 1.4 1.3 5.8 5.9 9.6 10.1l7 7.8-6.3-.1h-6.4L510 63l-7.5-8.8-.3 8.9-.3 8.9H492V13h10zM97.5 28.1q13.05 3.6 15 19.2l.7 5.7H96.1c-9.9 0-17.1.4-17.1.9 0 2.1 2 6 4.1 8 4.5 4.2 15.4 3.4 17.2-1.4.5-1.1 2.1-1.5 5.7-1.5 2.7 0 5 .2 5 .5 0 1.9-3.5 6.8-6.4 9-11.8 9-30.1 3-34.2-11.3-5.3-18.3 9.3-34 27.1-29.1m52.7 2.4L154 33v-2.5c0-2.3.3-2.5 5-2.5h5v44h-5c-4.7 0-5-.2-5-2.6v-2.5l-2.8 1.9c-8.2 5.9-19.5 4.8-26.4-2.5-7.4-7.7-8.1-23.6-1.6-31.3 7-8.2 18.5-10.1 27-4.5m102.6.2c5.9 3.7 9.2 9.7 9.2 17V53h-16.5c-18.1 0-18.1 0-15 5.9 3.2 6.3 13.2 7.7 18.5 2.6 2-1.9 3.6-2.5 7.3-2.5 2.6 0 4.7.3 4.7.6 0 2.2-4.9 7.8-8.8 10.2-3.9 2.2-5.8 2.7-11.4 2.6-5.6 0-7.4-.5-11.4-3-12.1-7.5-14.1-25.8-3.8-36 7-7 18.4-8.2 27.2-2.7m41 1c-.3 4.3-.6 4.8-2.8 5.1-4.2.5-8 2.4-9.2 4.6-.6 1.1-1.3 8.5-1.6 16.3l-.5 14.3H271V28h4.5c4.1 0 4.5.2 4.5 2.5 0 1.4.5 2.5 1 2.5.6 0 1-.4 1-.9 0-1.2 8-5.1 10.3-5.1 1.5 0 1.8.7 1.5 4.7m31.9-2.7c4.3 1.9 8.3 6.9 8.3 10.2 0 1.4-.9 1.8-3.9 1.8s-4.6-.7-6.9-3c-4.8-4.7-13.2-3.7-13.2 1.5 0 3 2.4 4.6 11.4 7.5 8.7 2.9 12.6 6.2 13.2 11.5 1.7 13.7-19.7 19.6-30.8 8.5-2.5-2.4-3.8-4.7-3.8-6.4 0-2.4.3-2.6 4.4-2.6 3.6 0 4.6.4 5.1 2.1 1.6 4.9 13.1 6.4 15.5 1.9 1.9-3.6-.4-5.6-10.4-9-9.9-3.3-11.9-4.7-13.7-9.8-1.3-3.7.1-9 3.1-11.7 4.9-4.5 14.9-5.6 21.7-2.5m112-.5c17.2 5.1 20.4 29.9 5.1 40.1-15.5 10.5-34.8.2-34.8-18.6 0-8.5 3.4-15.2 9.7-19.1 6.4-4 12.4-4.7 20-2.4M484 32v5h-3.4c-2.2 0-4.5.9-6.3 2.4l-2.8 2.4-.3 15.1-.3 15.1H462V28h4.5c4.2 0 4.5.2 4.5 2.7v2.6l2.3-2.1c2.4-2.3 6.2-4 9-4.1 1.4-.1 1.7.8 1.7 4.9M186.5 45.4c3.5 10.3 6.3 16.9 6.7 16.2s3.2-8.4 6.2-17.1c3-8.6 5.7-15.9 5.9-16.2.3-.2 2.5-.3 5-.1l4.6.3-8.2 21.5-8.2 21.5-5.6.3-5.7.3-2.8-7.3c-1.5-4-5.1-13.6-8.1-21.3-2.9-7.7-5.3-14.3-5.3-14.7s2.1-.8 4.8-.8h4.7zm163.3-14.2c.5 1.8 2.4 9.3 4.3 16.5C356 55 357.7 61 358 61s1.1-1.9 1.7-4.3c.6-2.3 2.6-9.7 4.3-16.5l3.3-12.2h4.8c4.5 0 4.9.2 5.5 2.7 4.2 16.8 8.3 30.5 8.8 29.3.3-.8 2.3-8.3 4.4-16.5l3.9-15 4.7-.3c3.6-.2 4.7 0 4.3 1-.2.7-3.3 10.6-6.8 22L390.5 72h-10l-3.9-14.8c-2.1-8.1-4.2-15-4.5-15.4-.4-.4-2 4.1-3.5 10-1.6 5.9-3.5 12.8-4.3 15.5l-1.4 4.7H358c-4.6 0-4.9-.2-5.9-3.3-7.9-25.1-12.1-39-12.1-39.7 0-.6 2-1 4.5-1 4.1 0 4.5.2 5.3 3.2m194.6 31.7c4.4 4.8-1.5 12.2-7 8.7-4.5-3-2.4-10.6 3-10.6 1.3 0 3.1.9 4 1.9"/><path d="M35.5 36.4c-4.1 1.8-6.1 4.3-7.4 9.3-3 11.3 5.6 21.1 16 18.3 4.3-1.2 6.2-3.2 8.4-8.5 3.2-7.4-.1-16.2-7.1-19.1-4.1-1.7-6-1.7-9.9 0m49.8.2C82.7 37.9 79 43 79 45.4c0 .3 5.4.6 12.1.6h12.1l-.7-2.7c-.9-3.7-2.4-5.3-6.2-7-4.2-1.7-7-1.6-11 .3m50.7.1c-11.6 6-10.2 24 2.2 27.4 3.1.8 4.6.6 8.1-.9 5.2-2.3 7.7-6.8 7.7-13.9 0-10.3-9.4-17-18-12.6m99.3-.2c-2.9 1.2-6.3 5.8-6.3 8.5 0 .6 4.3 1 12 1 6.6 0 12-.2 12-.5 0-2.8-3.3-7.4-6.3-8.8-4.2-2-7.1-2.1-11.4-.2m190.1-.1c-4.3 1.9-7.2 6-8 11.1-1.3 9.1 4.2 16.8 11.9 16.8 8.3 0 13.7-5.6 13.7-14.3 0-10.6-8.9-17.5-17.6-13.6"/></svg>