<svg xmlns="http://www.w3.org/2000/svg" width="323.176" height="338.393" viewBox="0 0 85.507 89.533">
  <g transform="translate(-44.66 -49.26)"/>
  <path style="fill:#e8e8e8;fill-opacity:.834677;fill-rule:evenodd;stroke:none;stroke-width:.999999px;stroke-linecap:butt;stroke-linejoin:miter;stroke-opacity:1" d="M336.947 186.184q-.454-.007-.908.011c-9.693.404-15.348 5.654-17.771 8.885s-27.061 47.256-27.061 47.256-2.827 6.461-1.615 8.885l1.21 2.424s-4.846-3.231-15.347 2.423c-10.501 5.655-17.367 14.54-17.367 14.54l-78.76 100.57s-11.188 12.396-10.502 29.08c.433 10.523 8.887 16.154 8.887 16.154l63.576 47.734c-6.253 4.754-10.577 11.488-10.717 20.973.658 9.985 8.986 20.027 31.768 16.305 4.207-.688 12.696-2.446 21.492-5.336l20.299 15.24s24.445 19.599 36.158 11.117 22.002-45.045 22.002-45.045l119.148-116.32s10.098-10.098 10.502-20.6c.404-10.5-3.232-16.962-7.271-22.212-4.039-5.251-128.84-123.592-128.84-123.592s-9.478-8.338-18.883-8.492m49.23 137.382 26.05 12.797-70.38 51.643zm-94.6 23.764-27.423 53.014-18.281-8.225z" transform="translate(-44.66 -49.26)scale(.26458)"/>
  <path style="opacity:.99;fill:#92d1fe;fill-opacity:1;stroke:#92d1fe;stroke-width:5;stroke-linejoin:round;stroke-miterlimit:4;stroke-dasharray:none;stroke-dashoffset:0;stroke-opacity:1" d="M81.599 131.088c-2.963-2.263-24.396-18.245-28.106-20.957-1.735-1.268-3.413-2.608-3.73-2.979-.751-.876-1.057-2.274-.76-3.473.223-.903.574-1.406 6.186-8.848 3.272-4.34 8.225-10.941 11.007-14.67 5.34-7.16 5.632-7.486 7.645-8.549 1.733-.914 2.677-.95 6.58-.249 3.996.718 7.35 1.495 7.877 1.826.189.119.396.443.46.72.113.496.062.558-2.778 3.39-7.729 7.71-17.956 17.75-21.761 21.361-2.726 2.587-4.337 4.236-4.522 4.628-.646 1.373-.365 2.324.927 3.134.459.288 3.212 1.452 6.119 2.586 8.008 3.125 16.065 6.21 19.197 7.348 3.01 1.094 5.219 2.299 6 3.272.698.87 1.145 1.96 1.128 2.75-.03 1.38-2.928 9.489-3.853 10.783-.58.811-1.32 1.042-2.504.78-1.454-.321-2.733-1.035-5.112-2.853z" transform="translate(-44.66 -49.26)"/>
  <path style="opacity:.99;fill:#0073aa;fill-opacity:1;stroke:#0073aa;stroke-width:5;stroke-linejoin:round;stroke-miterlimit:4;stroke-dasharray:none;stroke-dashoffset:0;stroke-opacity:1" d="M94.75 57.56c2.852 2.79 23.546 22.552 27.137 25.915 1.678 1.572 3.285 3.214 3.57 3.648.675 1.026.786 2.543.276 3.768-.384.923-.845 1.407-8.096 8.505a4752 4752 0 0 0-14.237 14.001c-6.914 6.838-8.132 9.172-10.088 9.105-2.148-.073-2.59-.471-6.708-1.738-4.215-1.296-7.724-2.57-8.243-2.99-.187-.15-.36-.52-.385-.822-.044-.538.02-.597 3.543-3.204 9.588-7.096 22.25-16.313 26.94-19.612 3.36-2.363 5.366-3.886 5.628-4.275.917-1.362.763-2.403-.51-3.434-.45-.365-3.25-1.965-6.22-3.555-8.18-4.379-16.42-8.721-19.633-10.346-3.088-1.561-5.071-3.299-5.983-4.264-1.143-1.208-1.104-2.272-.788-3.055 1.036-2.566 4.668-9.621 5.874-10.863.757-.778 1.376-1.533 2.617-1.097 1.523.535 3.015 2.074 5.306 4.313z" transform="translate(-44.66 -49.26)"/>
  <path style="fill:#01aba8;fill-opacity:1;stroke:none;stroke-width:.264583px;stroke-linecap:butt;stroke-linejoin:miter;stroke-opacity:1" d="M85.055 77.007s1.413-2.939 2.983-5.547c1.51-2.51 4.882-3.312 6.236-3.235 3.592.202 10.587.977 10.587.977s5.744.565 3.598 4.287c-2.956 5.125-30.056 44.691-32.779 46.425-2.722 1.734-12.004 2.356-9.778-2.1 2.226-4.457 19.153-40.807 19.153-40.807m-12.921 46.135c3.62.321 5.131 2.414 3.773 4.527s-6.2 3.219-7.696 3.47c-3.68.62-5.025-1.052-5.131-2.716.072-5.06 7.072-5.424 9.054-5.281" transform="translate(-44.66 -49.26)"/>
</svg>
