<svg xmlns="http://www.w3.org/2000/svg" width="400" height="400"><path d="M0 0h400v400H0z" fill="#1E172F"/><path d="M251.855 156.898A111 111 0 0 1 258 162l3.125 2.438c2.167 1.93 3.87 3.675 5.71 5.87 5.005 5.77 10.438 11.114 15.844 16.502a2388 2388 0 0 1 5.45 5.456l3.527 3.523 1.614 1.62a153 153 0 0 0 10.233 9.259C305 208 305 208 306.938 210.438c1.78 2.21 3.416 3.786 5.566 5.601 5.076 4.393 9.775 9.13 14.496 13.899l2.637 2.65Q332.822 235.79 336 239c-3.513 4.559-7.004 7.798-11.812 10.938l-1.96 1.293C315.21 255.72 307.741 258.977 300 262l-1.993.814C275.78 271.64 248.52 267.51 227 259c-9.681-4.381-17.812-10.34-26-17-3.52 1.56-6.203 3.709-9.187 6.125-7.247 5.643-15.375 9.35-23.813 12.875l-1.98.832c-20.941 8.358-47.838 7.23-68.829-.418C85.367 256.174 74.574 249.731 65 241c.56-3.822 2.213-5.59 4.938-8.25l2.152-2.14C74 229 74 229 76 229v-2c1.44-1.418 1.44-1.418 3.45-3.076 4.702-4.002 9.023-8.305 13.355-12.701q2.476-2.496 4.953-4.99 3.864-3.902 7.722-7.81 3.752-3.793 7.512-7.575l2.345-2.386 2.166-2.177 1.906-1.927C121 183 121 183 123 183v-2c1.363-1.305 1.363-1.305 3.313-2.875 3.692-3.118 6.922-6.517 10.124-10.125 8.657-9.657 18.055-16.148 30.375-20.125l2.252-.762c27.228-8.958 58.726-6.215 82.791 9.785" fill="#A870D8"/><path d="m199.813 275.563 2.131.008c10.504.061 20.132.704 30.056 4.429l3.258 1.168c9.897 3.832 17.998 8.885 25.804 16.02l1.737 1.586c2.513 2.37 4.092 3.9 5.201 7.226-5.686 8.867-14.784 15.31-24 20l-1.82 1.055c-18.388 10.268-46.798 11.104-67.117 6.445A111 111 0 0 1 168 331l-2.076-.797C153.78 325.418 141.323 318.193 134 307c.19-5.077 4.533-8.702 8-12 6.514-5.302 13.35-9.446 21-12.875l1.828-.83c11.308-4.785 22.838-5.842 34.985-5.733" fill="#A76FD9"/><path d="M149 188c3.642 1.383 7.006 3.038 10.438 4.875C181.189 203.872 208.945 204.168 232 197c3.15-1.122 6.075-2.385 9-4 1.978-1.043 3.971-2.06 6-3l2 1-28.4 28.4-4.355 4.36a403 403 0 0 1-8.308 8.053l-1.564 1.521C203.258 236.25 202.443 237 198 237c-1.79-1.315-1.79-1.315-3.62-3.181-1.035-1.042-1.035-1.042-2.093-2.104-.735-.76-1.47-1.519-2.228-2.3l-2.316-2.34a1832 1832 0 0 1-7.305-7.45 4935 4935 0 0 0-7.317-7.428q-2.28-2.312-4.547-4.634l-2.084-2.123-1.827-1.87c-1.783-1.771-1.783-1.771-4.663-3.57v-2l-1.766-.777c-2.431-1.33-4.051-2.807-5.984-4.786l-1.86-1.878C149 189 149 189 149 188" fill="#221937"/><path d="M176.063 274.938 179 275l-1 3c-2.922 1.14-2.922 1.14-6.75 2.25-13.538 4.21-28.228 11.553-36.25 23.75.226 4.689 3.774 7.904 7 11 3.575 2.804 7.252 5.433 11 8l-3 1-2-1v-2l-5-1v-3l-6-1-.125-1.875L136 312c-2.93-1.17-2.93-1.17-6-2l-2-2 1.375-1.062c1.9-1.983 1.9-1.983 2.5-5.375 1.313-4.157 2.486-5.278 6.125-7.563l2.563-1c2.563-.868 2.563-.868 4.437-3 2-2 2-2 4.688-3l2.312-1c.887-2.041.887-2.041 1-4l3 1 3-2a90 90 0 0 1 4.438-1.5c4.29-1.336 8.374-4.476 12.625-4.562" fill="#382254"/><path d="m247 190 2 1-24 24-1-3 2-3c-1.37-3.161-1.99-3.993-5-6l1-1-4-2 3.184-.734c8.459-2.001 16.288-4.174 23.925-8.446z" fill="#23193A"/><path d="m262 295 4 2v2h2l1-2c2.614 8.658 2.614 8.658 1 12.188L269 311l-3-1c-1.316 3.62-2 6.096-2 10h-4l-3 1-1 5-3.375.438c-3.446.346-3.446.346-5.625 1.562l-3-3 1.617-.777C254.222 319.8 261.111 313.655 267 306c-1.838-3.151-3.76-6.12-6-9z" fill="#3B2658"/><path d="m335 240 1 3c-5 5-5 5-6.75 6.625-1.507 1.471-1.507 1.471-2.25 4.375l-2.937.375L321 255l-1 2-1.687.375c-2.56.56-2.56.56-5.313 2.625-3.716 2.477-5.998 2.87-10.375 3.438-3.407.528-6.395 1.38-9.625 2.562l-1-2 1.598-.592C308.754 257.736 323.333 251.592 335 240" fill="#35204D"/><path d="m253 186 2 3c-2.333 2.333-4.917 4.191-7.559 6.164-3.099 2.423-4.947 3.883-5.441 7.836a206 206 0 0 1-2 5h-2v-3h-2l-.812 1.938C234 209 234 209 231 210l1 3c-2.88 2.24-5.767 4.299-9 6l-2-1 2.479-2.415c3.029-2.957 6.045-5.927 9.057-8.9a985 985 0 0 1 3.928-3.848 955 955 0 0 0 5.63-5.54c.59-.57 1.18-1.14 1.79-1.727 1.45-1.45 2.793-3.004 4.116-4.57v-4z" fill="#8E68CD"/><path d="M228.938 193.5c2.239.736 2.239.736 5.062-.5a195 195 0 0 1 7 0c-1 2-1 2-4.21 3.219q-2.08.653-4.165 1.281l-2.02.645c-10.626 3.274-20.695 4.136-31.792 3.98l-3.752-.027q-4.53-.036-9.061-.098c2-2 2-2 4.256-2.18l2.803.09 3.11.06q3.217.09 6.43.196c6.513.117 12.016-.556 18.241-2.512C223 197 223 197 225 197v-3c2-1 2-1 3.938-.5" fill="#7E5ED1"/><path d="m89 257 2.945 1.172c11.79 4.51 23.604 6.893 36.055 8.828l-1 3v-2l-3 1c-4.15 1.175-7.695 1.365-12 1l-2-3c-1.99-.388-3.994-.708-6-1-2.269-.689-4.501-1.46-6.742-2.234C94.2 262.729 91.11 261.86 88 261z" fill="#382252"/><path d="m199.813 275.563 2.122.005c23.565.099 23.565.099 33.065 6.432l-3.004-.434c-3.975-.567-7.953-1.101-11.934-1.628l-2.072-.276L213 279v-2l-2 1c-1.537.06-3.076.06-4.613.027l-2.783-.037q-2.9-.053-5.797-.117c-4.807-.057-8.39.02-12.807 2.127l-2-1-2.75 1c-3.58 1.102-5.652.857-9.25 0v-1c9.647-2.702 18.851-3.524 28.813-3.437" fill="#A475C9"/><path d="m242 326 2 1a271 271 0 0 1-2.812 3.5l-1.583 1.969C238 334 238 334 235 334c-2.295.29-4.586.606-6.875.938l-3.68.527c-1.943.302-3.885.636-5.802 1.076-2.889.502-5.454.479-8.381.338l-3.233-.147-3.341-.17-3.4-.158q-4.146-.194-8.288-.404v-1l1.95-.028c16.429-.3 31.082-1.43 46.23-8.335z" fill="#492E6A"/><path d="M224 272c2 2 2 2 2 5l3.438.875L233 279l1 2-2.988-.84c-13.903-3.62-27.7-3.975-42.012-4.16v-1c4.699-1.125 9.38-1.374 14.188-1.625l2.557-.136c5.866-.272 11.433-.098 17.255.761z" fill="#482E68"/><path d="M149 188c3.71 1.413 7.173 3.094 10.688 4.938C165 195.63 170.232 197.545 176 199l-2 2c-2.164-.242-2.164-.242-4.625-.875l-2.477-.617L165 199c1.152 2.468 2.048 4.048 4 6-4.316 0-5.928-2.133-9-5v-2l-1.766-.777c-2.431-1.33-4.051-2.807-5.984-4.786l-1.86-1.878C149 189 149 189 149 188" fill="#28174A"/><path d="m246 265 1.738.219c14.708 1.607 29.545.918 44.262-.219l-1.875.926a70 70 0 0 0-4.125 2.262c-2.479 1.006-3.478.521-6-.188-2.02.338-2.02.338-4 1l-4 1v-2l-2.555.254-3.32.308-3.305.317C260 269 260 269 258 268l-1 2-2-1-1.875.563C251 270 251 270 248.813 269.25 247 268 247 268 246 265" fill="#341D4D"/><path d="M157 285c0 3 0 3-1.355 4.5-3.43 2.808-6.8 5.274-10.645 7.5l-2.687 2.188C140 301 140 301 138 301l-2 7-2-1c1.336-7.204 7.334-11.696 13.042-15.724 6.994-4.794 6.994-4.794 9.958-6.276" fill="#9F71C3"/><path d="m91 209 3 2a2257 2257 0 0 1-7.875 8l-2.262 2.313-2.168 2.187-2 2.031C78 227 78 227 76 227v2a125 125 0 0 1-6 4c1.477-4.677 1.477-4.677 4.125-6.312L76 226v-2h3l.75-2.937L81 218l1.875-.437c2.912-.771 3.675-2.19 5.375-4.625l1.578-2.223z" fill="#341D4B"/><path d="m192 231 7 6c3.488-1.744 6.034-3.528 9-6v4c-6 4-6 4-9 4l-.312 1.813c-.786 2.5-1.657 3.562-3.688 5.187h-2l-1-5 3-2v-2l-2-1c-.625-2.562-.625-2.562-1-5" fill="#A071CE"/><path d="m160 264-1 2-3 1v2h-2v2h-3l-2-3c-2.681 0-5.156.24-7.812.563-3.939.415-7.3.358-11.188-.563v-1q5.812-.757 11.625-1.5l3.316-.434 3.223-.41 2.952-.38c2.979-.285 5.893-.323 8.884-.276" fill="#341F4E"/><path d="M232 331c-11.862 3.665-22.617 4.485-35 4v-2l3.988-.148c12.552-.471 12.552-.471 24.918-2.547 2.321-.338 3.878-.02 6.094.695" fill="#A374C9"/><path d="m184 222 8 1 .813 2.438L194 228l3 1a156 156 0 0 1 2 5c1.52 1.773 1.52 1.773 3 3-4 0-4 0-5.74-1.27l-1.713-1.757-1.875-1.9-1.922-2.01-1.969-1.999C184 223.168 184 223.168 184 222" fill="#382254"/><path d="m247 190 2 1-12 12-2-4h4v-2l-2.625 1c-3.332.987-5.927 1.164-9.375 1v-1l2.598-.734c7.563-2.145 7.563-2.145 14.59-5.578z" fill="#2C1A4C"/><path d="M169 208c5.661 4.698 10.852 9.747 16 15-3 1-3 1-5.5.5-3.63-2.178-4.113-4.557-5.5-8.5h-6z" fill="#8D65CC"/><path d="M199 241c4.172 1.7 5.445 3.445 9 7h-16z" fill="#2E1E40"/><path d="M228.938 193.5c2.239.736 2.239.736 5.062-.5a195 195 0 0 1 7 0c-1 2-1 2-3.73 3.07l-3.458 1.055-3.417 1.07c-3.275.777-6.046.957-9.395.805l4-2v-3c2-1 2-1 3.938-.5" fill="#8963C3"/><path d="m236 280 3.438.5c3.395.82 3.395.82 5.562-.5v3l3 1 2 3a118 118 0 0 0 7 3l-2 3-1.687-1.172c-4.402-3.003-8.76-5.704-13.586-7.969C238 283 238 283 235 281z" fill="#3B2257"/><path d="m191 248 1 4c-3.807 2.58-7.539 3.902-11.914 5.156-2.173.72-2.173.72-3.691 2.457L175 261c-2.687-.312-2.687-.312-5-1 4.016-2.677 8.284-4.835 12.55-7.078 2.912-1.539 5.708-3.094 8.45-4.922" fill="#3E2657"/><path d="m165 199 11 1-1 4h-2l1.5 1.313C176 207 176 207 176 210l-4-1-.187-1.875L171 205l-2.5-1-2.5-1z" fill="#1E1831"/><path d="M311 214c4.428 1.392 6.956 3.52 10 7v2l4 1v3h3l2 6c-4.729-3.87-9.113-8.003-13.437-12.312l-1.65-1.636C311 215.124 311 215.124 311 214" fill="#2D1842"/><path d="M192 139v2l2-1c3.608-.07 7.205.003 10.813.063 3.084.167 3.084.167 5.187-1.063l1 3c-3.937.058-7.875.094-11.812.125l-3.393.05-3.252.02-3 .032C187 142 187 142 184 140c2.892-.826 4.887-1 8-1" fill="#1C0C27"/><path d="M328 232a271 271 0 0 1 3.5 2.813l1.969 1.582C335 238 335 238 335 241c-1.68 1.824-1.68 1.824-3.875 3.688l-2.18 1.886C327 248 327 248 325 248v-3l3-1 1-2h2c-.95-3.354-1.897-6.692-3-10" fill="#9F74C3"/><path d="m173 193 4 2-1 4c-5.258-.674-10.026-2.243-15-4v-1l2.371.035 3.066.028 3.06.035c2.443.188 2.443.188 3.503-1.098" fill="#8F64D5"/><path d="M173 330c2.96.254 5.917.528 8.875.813l2.55.212 2.442.245 2.254.206C191 332 191 332 193 335c-7.474.374-13.821-.96-21-3z" fill="#9E70C3"/><path d="m253 186 2 3c-2 2-2 2-3.687 3.25-3.227 2.442-6.258 5.099-9.313 7.75l-2-1 1.75-1.61 2.25-2.14 2.25-2.11c2.172-2.195 2.172-2.195 1.75-6.14z" fill="#8E62C1"/><path d="m223 257 3.625 1.25c6.393 2.138 12.885 3.931 19.375 5.75l-2 2h-3v-2l-1.687.563c-2.712.513-4.657.101-7.313-.563v-2l-1.715-.332-2.222-.48-2.215-.458L224 260z" fill="#3D2255"/><path d="M322 250c-2.715 3.222-6.238 4.895-9.937 6.75l-1.881.996c-4.604 2.324-4.604 2.324-7.623 1.957L301 259v-1h6v-2l2.75-1.312c3.172-1.506 3.172-1.506 5.313-3.375 2.445-1.657 4.045-1.554 6.937-1.313" fill="#A273C6"/><path d="M138 301c2.993 1.098 3.846 1.677 5.25 4.625L144 308c-3 2-3 2-5.687 1.625L136 309c-.2-3.716-.152-4.772 2-8" fill="#AE75D5"/><path d="M254 292c4.637 3.275 8.685 6.304 12 11-2.076.553-3.844 1-6 1v-2h-2l-.875-2.75A53 53 0 0 0 254 292" fill="#A574CC"/><path d="m266 303 2 3a2696 2696 0 0 1-3.312 3.813l-1.864 2.144c-3.273 3.666-3.273 3.666-4.824 5.043h-2c1.395-4.44 3.561-6.905 7-10l2-1z" fill="#A474C8"/><path d="M229 258h8l1 2c2.322.407 4.657.744 7 1l1 3c-6.401-.466-11.268-2.147-17-5z" fill="#A473C7"/><path d="m222 215 2 1-1.355 1.102c-3.105 2.58-5.94 5.106-8.458 8.273L212 228h-2v-3l4-1-1-4a432 432 0 0 1 4.375-2.562l2.46-1.442z" fill="#352157"/><path d="M164 329q3.877.93 7.75 1.875l2.21.527c3.573.877 6.834 1.725 10.04 3.598-2.869 1.434-4.87.542-8 0-2-.037-4-.048-6 0v-2l-3 1c-2.187-1.437-2.187-1.437-4-3z" fill="#402760"/><path d="M210 226c-.556 3.6-1.749 5-4.562 7.25l-1.942 1.578L202 236l-1-3h3l-1-7c3.133-1.044 3.99-.934 7 0" fill="#2B1A42"/><path d="m83 221 2 2-2.375 1.813c-2.77 2.098-2.77 2.098-4.625 5.187l-3 1-.875 2c-1.125 2-1.125 2-3.75 2.75L68 236a418 418 0 0 1 2.875-3.5l1.617-1.969L74 229h2v-2c1.531-1.508 1.531-1.508 3.5-3.125l1.969-1.633z" fill="#A174C7"/><path d="m110 266 18 1-1 3v-2l-3 1c-4.086 1.187-7.763 1.149-12 1z" fill="#2C1E41"/><path d="m335 240 1 3c-2.853 2.932-5.65 5.643-9 8l-2-1v2l-3-1 2-1.562c3.753-3.05 7.376-6.237 11-9.438" fill="#392155"/><path d="M224 272c2 2 2 2 2 5l3.438.875L233 279l1 2a893 893 0 0 1-5.812-1.375l-3.27-.773C222 278 222 278 219 276v-2h4z" fill="#3D2558"/><path d="m146 318 8 2v2l2.375.25c2.625.75 2.625.75 3.938 2.813L161 327c-5.732-1.47-10.336-4.445-15-8z" fill="#976DBA"/><path d="m115 186 3 1-13 13-1-2c2.779-3.602 5.741-6.827 9-10z" fill="#2A133E"/><path d="M157 197c5.413 1.804 8.598 6.59 12 11h-3v-2h-4c-1.562-2.312-1.562-2.312-3-5-1.582-1.751-1.582-1.751-3-3z" fill="#8762C1"/><path d="m246 195 3 1-1 7-3 1-2-6z" fill="#9B69DB"/><path d="M188 277q-2.343.722-4.687 1.438l-2.637.808c-5.134 1.447-5.134 1.447-7.676 1.754l-2-2q3.121-.796 6.25-1.562l3.516-.88c2.955-.51 4.478-.588 7.234.442" fill="#956AB7"/><path d="M239 200h4l-.937 2.313A111 111 0 0 0 240 208h-2v-3h-2c1.875-3.875 1.875-3.875 3-5" fill="#9465DB"/><path d="M95 210v5c-5.273 3.223-5.273 3.223-7 4l-2-1q1.965-2.004 3.938-4l2.214-2.25C94 210 94 210 95 210" fill="#A273CB"/><path d="m245 185 4 2c-.625 1.875-.625 1.875-2 4-3.125 1.25-3.125 1.25-6 2v-2h2l.438-2.437C244 186 244 186 245 185" fill="#986CD0"/><path d="M199 241c3.817 1.555 6.192 4.036 9 7l-8-1 2-1-1-2c-2.025-.652-2.025-.652-4-1z" fill="#351D4F"/><path d="m185 224 7 6-2 2c-2.625-.375-2.625-.375-5-1z" fill="#976BCE"/><path d="M140 315c5.09 1.59 8.875 4.745 13 8l-3 1-2-1v-2l-5-1v-3h-3z" fill="#422661"/><path d="M241 284c4.776 1.642 8.794 4.265 13 7l-1 2c-3.848-.55-5.353-2.27-8-5-2.133-1.235-2.133-1.235-4-2z" fill="#9E71C1"/><path d="M262 295c3.161 1.37 3.993 1.99 6 5v3c-3.367-1.393-4.986-2.979-7-6z" fill="#3B255B"/><path d="m153 288-9 7-1-3c5.6-6.2 5.6-6.2 10-4" fill="#3F245D"/><path d="m292 265-4 2-2 1.188c-2.508 1.018-3.494.752-6-.188a357 357 0 0 1-4-2c5.349-.592 10.609-1.142 16-1" fill="#3A2554"/><path d="m191 248 1 4c-4.625 3-4.625 3-8 3 1.453-3.83 3.429-5.12 7-7" fill="#341F4C"/><path d="m169 204 3 1q.53 1.993 1 4c1.479 1.73 1.479 1.73 3 3l-1 2-7-7z" fill="#271648"/><path d="M153 324c3.487 1.11 6.775 2.263 10 4v3h-2l-1-2a127 127 0 0 0-6-2l-2-1z" fill="#3F265F"/><path d="m227 193 3 1v3h-4v2h-5l4-2v-3z" fill="#9265D7"/><path d="M249 156c4.81 2.547 8.324 4.99 12 9l-2 1-2.187-2.312c-2.652-2.732-2.652-2.732-5.625-4.375L249 158z" fill="#9F73C0"/><path d="M149 188c3.791 1.45 7.387 3.152 11 5l-3 1-1 2q-1.755-1.715-3.5-3.437l-1.969-1.934C149 189 149 189 149 188" fill="#4C297B"/><path d="M156 147h4l1 3c-1.977.73-3.98 1.394-6 2l-2-1c1.25-2 1.25-2 3-4" fill="#181027"/><path d="m235 146 7 2 1 4-9-3z" fill="#28153A"/><path d="m65 235 3 1-2 2c-.332 3.003-.332 3.003 1.5 4.688L69 244c-3 0-3 0-5-1q-.062-3.5 0-7z" fill="#341E4F"/><path d="M294 199q1.973 1.43 3.938 2.875l2.214 1.617C302 205 302 205 303 207l-3 1a483 483 0 0 1-3-3.375l-1.687-1.898C294 201 294 201 294 199" fill="#986DBD"/><path d="M246 286c3.916.783 7.364 2.392 11 4l-2 3q-2.254-1.463-4.5-2.937l-2.531-1.653L246 287z" fill="#452964"/><path d="m170 260-1 3-9 1c2.747-2.747 6.086-4 10-4" fill="#3D2255"/><path d="m170 260 10 1c-3.089 2.06-3.71 2.239-7.187 2.125L169 263z" fill="#281F3D"/><path d="m76 224 1 3c-4.75 4.875-4.75 4.875-7 6 1.477-4.677 1.477-4.677 4.125-6.312L76 226z" fill="#2E1944"/><path d="m247 190 2 1-7 6-1-4a101 101 0 0 1 6-3" fill="#35195D"/><path d="m254 320 3 1-1 5-3 1-2-2z" fill="#32244D"/><path d="m136 309 7 2v5a858 858 0 0 1-3.5-2.937l-1.969-1.653L136 310z" fill="#976BBC"/><path d="m266 303 2 3-5 6-1-3 1.438-1.312c1.799-1.711 1.799-1.711 2.562-4.688" fill="#9B70BE"/><path d="M208 248c3.375 1.186 5.647 2.276 8 5l-7-1z" fill="#37214F"/><path d="m207 231 1 4a56.5 56.5 0 0 1-7 4c1.443-3.366 3.333-5.51 6-8" fill="#9166BF"/><path d="M322 225h3v2h3l2 6a707 707 0 0 1-3.437-2.875l-1.934-1.617C323 227 323 227 322 225" fill="#351C4C"/><path d="M296 200h4v2l4 2-1 3a858 858 0 0 1-3.5-2.937l-1.969-1.653L296 201z" fill="#311A46"/><path d="m117 187 1 2c-2.85 3.008-5.235 5.278-9 7q1.436-1.688 2.875-3.375l1.617-1.898A76 76 0 0 1 117 187" fill="#8761A7"/><path d="m153 188 4 1v2l4 1-1 2-8-4z" fill="#9368CA"/><path d="m166 281 1 3c-2.312 1.125-2.312 1.125-5 2l-3-2z" fill="#9D6FBC"/><path d="m160 264-1 2c-3.231.862-5.225 1.306-8.375.063L149 265c3.734-.879 7.168-1.09 11-1" fill="#41265E"/><path d="M107 261c1.688 1.563 1.688 1.563 3 3-3.719-.507-6.735-1.116-10-3 3.01-.934 3.867-1.044 7 0" fill="#9A6CBB"/><path d="m72 247 7 4-1 2c-2.437-.75-2.437-.75-5-2-.812-2.125-.812-2.125-1-4" fill="#321B4A"/><path d="M74 229c1 2 1 2 .375 4.063C73 235 73 235 70.375 235.75L68 236z" fill="#8F66B1"/><path d="m184 222 8 1-1 4c-3.653-1.25-4.78-1.671-7-5" fill="#301E4A"/><path d="m228 208 3 1-7 6 1-5h3z" fill="#311C59"/><path d="M160 199h5l.875 1.875c1.062 2.258 1.062 2.258 3.125 4.125-4.412 0-5.784-2.07-9-5z" fill="#2E1B51"/><path d="M154 322c2.375.25 2.375.25 5 1 1.313 2.063 1.313 2.063 2 4-2.937-.812-2.937-.812-6-2z" fill="#9F73C4"/><path d="M161 194h8l1 2c-2.788 1.033-3.868 1.045-6.75.063L161 195z" fill="#8562BC"/><path d="M139 161h3c-1.37 3.161-1.99 3.993-5 6 .875-4.875.875-4.875 2-6" fill="#2A143D"/></svg>