<svg version="1.0" xmlns="http://www.w3.org/2000/svg" width="277.333" height="66.667" viewBox="0 0 208 50"><path d="M30.5 1.5c-2.2.9-5.1 2.4-6.5 3.5l-2.5 1.9 2.2 1.6c1.2.8 6.7 7.6 12.3 14.9 5.5 7.4 11.8 14.9 13.9 16.6 4.6 3.5 10.8 6.3 12.6 5.6.7-.2 2.2-3 3.4-6.1 7-18.7-5.3-38.1-24.8-39.1-4.2-.2-8 .2-10.6 1.1M3.6 7.7C.8 13.3.4 23.6 2.5 30c5.1 15.5 23.4 23.4 38.1 16.6 2.8-1.3 5.4-2.8 5.7-3.3.4-.6-.8-2.3-2.5-3.9S37 31.5 32.5 25.5C21.3 10.5 13.8 4 7.7 4 6 4 4.9 5 3.6 7.7m163.1-1c-.4.3-.7 9.3-.7 20V46h12.9c14 0 17.1-.7 21.5-4.8 11.3-10.6 7.3-29-7.3-34-3.6-1.3-25.3-1.7-26.4-.5m27 8.3c5.9 3.5 8 11.7 4.8 18-2.4 4.6-6.2 6-16.5 6h-9V13h8.8c6.9 0 9.4.4 11.9 2M77 26.5V46h7V14h13.5c12.2 0 13.7.2 15.5 2 2.7 2.7 2.5 6.6-.5 9.5-2.3 2.4-3.1 2.5-13.5 2.5H88v7h14.6l5.4 5.5c5 5 5.8 5.5 9.9 5.5h4.5l-5.8-5.8-5.7-5.9L114 33c9.6-4 10.3-17.6 1.1-23.7-3.2-2.2-4.4-2.3-20.7-2.3H77zm48.7-18.8c-.4.3-.7 9.1-.7 19.5V46h7V19l13.2 13.5c17.8 18.4 17.2 18.6 17.6-6.3L163 7h-7v26.5l-13.2-13.3c-12-12.1-15.2-14.4-17.1-12.5"/></svg>